<svg xmlns="http://www.w3.org/2000/svg" width="920" height="620" viewBox="0 0 920 620" role="img" aria-labelledby="title desc">
  <title id="title">AI Performance Report</title>
  <desc id="desc">Aggregated AI latency, token usage, fallback rate, and failure rate from docs/ai-performance-history.json.</desc>
  <rect width="920" height="620" fill="#ffffff" />
  <text x="32" y="42" font-size="24" font-weight="800" fill="#202725">AI Performance Report</text>
  <text x="32" y="68" font-size="13" fill="#6f7875">Latency, tokens, fallback rate, and failure rate from docs/ai-performance-history.json</text>
  <text x="32" y="112" font-size="15" font-weight="700" fill="#202725">Summary</text>
  <text x="32" y="136" font-size="12" fill="#6f7875">5 latest cases · avg latency 8.3s · p95 9.6s · avg tokens 1012</text>

  <text x="32" y="184" font-size="15" font-weight="700" fill="#202725">Latency Trend</text>
  <line x1="92" y1="284" x2="732" y2="284" stroke="#ecf0ee" />
  <path d="M 92.0 202.3 L 163.1 247.3 L 234.2 219.4 L 305.3 194.0 L 376.4 218.6 L 447.6 236.8 L 518.7 231.9 L 589.8 238.9 L 660.9 230.5 L 732.0 223.8" fill="none" stroke="#57bf8e" stroke-width="3" stroke-linecap="round" stroke-linejoin="round" />
  <circle cx="92.0" cy="202.3" r="4" fill="#57bf8e" />
<circle cx="163.1" cy="247.3" r="4" fill="#57bf8e" />
<circle cx="234.2" cy="219.4" r="4" fill="#57bf8e" />
<circle cx="305.3" cy="194.0" r="4" fill="#57bf8e" />
<circle cx="376.4" cy="218.6" r="4" fill="#57bf8e" />
<circle cx="447.6" cy="236.8" r="4" fill="#57bf8e" />
<circle cx="518.7" cy="231.9" r="4" fill="#57bf8e" />
<circle cx="589.8" cy="238.9" r="4" fill="#57bf8e" />
<circle cx="660.9" cy="230.5" r="4" fill="#57bf8e" />
<circle cx="732.0" cy="223.8" r="5" fill="#202725" />
  <text x="92.0" y="308" text-anchor="start" font-size="11" fill="#6f7875">R1</text>
<text x="163.1" y="308" text-anchor="middle" font-size="11" fill="#6f7875">R2</text>
<text x="234.2" y="308" text-anchor="middle" font-size="11" fill="#6f7875">R3</text>
<text x="305.3" y="308" text-anchor="middle" font-size="11" fill="#6f7875">R4</text>
<text x="376.4" y="308" text-anchor="middle" font-size="11" fill="#6f7875">R5</text>
<text x="447.6" y="308" text-anchor="middle" font-size="11" fill="#6f7875">R1</text>
<text x="518.7" y="308" text-anchor="middle" font-size="11" fill="#6f7875">R2</text>
<text x="589.8" y="308" text-anchor="middle" font-size="11" fill="#6f7875">R3</text>
<text x="660.9" y="308" text-anchor="middle" font-size="11" fill="#6f7875">R4</text>
<text x="732.0" y="308" text-anchor="end" font-size="11" fill="#6f7875">R5</text>
  <text x="760" y="224" font-size="12" fill="#6f7875">lower is better</text>
  <text x="760" y="246" font-size="12" fill="#202725">slowest 14.2s</text>

  <text x="32" y="354" font-size="15" font-weight="700" fill="#202725">Token Trend</text>
  <line x1="92" y1="454" x2="732" y2="454" stroke="#ecf0ee" />
  <path d="M 92.0 383.3 L 163.1 384.0 L 234.2 377.6 L 305.3 388.1 L 376.4 378.9 L 447.6 366.1 L 518.7 378.9 L 589.8 364.0 L 660.9 366.8 L 732.0 367.3" fill="none" stroke="#75b7d9" stroke-width="3" stroke-linecap="round" stroke-linejoin="round" />
  <circle cx="92.0" cy="383.3" r="4" fill="#75b7d9" />
<circle cx="163.1" cy="384.0" r="4" fill="#75b7d9" />
<circle cx="234.2" cy="377.6" r="4" fill="#75b7d9" />
<circle cx="305.3" cy="388.1" r="4" fill="#75b7d9" />
<circle cx="376.4" cy="378.9" r="4" fill="#75b7d9" />
<circle cx="447.6" cy="366.1" r="4" fill="#75b7d9" />
<circle cx="518.7" cy="378.9" r="4" fill="#75b7d9" />
<circle cx="589.8" cy="364.0" r="4" fill="#75b7d9" />
<circle cx="660.9" cy="366.8" r="4" fill="#75b7d9" />
<circle cx="732.0" cy="367.3" r="5" fill="#202725" />
  <text x="92.0" y="478" text-anchor="start" font-size="11" fill="#6f7875">R1</text>
<text x="163.1" y="478" text-anchor="middle" font-size="11" fill="#6f7875">R2</text>
<text x="234.2" y="478" text-anchor="middle" font-size="11" fill="#6f7875">R3</text>
<text x="305.3" y="478" text-anchor="middle" font-size="11" fill="#6f7875">R4</text>
<text x="376.4" y="478" text-anchor="middle" font-size="11" fill="#6f7875">R5</text>
<text x="447.6" y="478" text-anchor="middle" font-size="11" fill="#6f7875">R1</text>
<text x="518.7" y="478" text-anchor="middle" font-size="11" fill="#6f7875">R2</text>
<text x="589.8" y="478" text-anchor="middle" font-size="11" fill="#6f7875">R3</text>
<text x="660.9" y="478" text-anchor="middle" font-size="11" fill="#6f7875">R4</text>
<text x="732.0" y="478" text-anchor="end" font-size="11" fill="#6f7875">R5</text>
  <text x="760" y="394" font-size="12" fill="#6f7875">lower is cheaper</text>
  <text x="760" y="416" font-size="12" fill="#202725">max 1065 tokens</text>

  <text x="32" y="522" font-size="15" font-weight="700" fill="#202725">Latest Runs</text>
  <text x="32" y="550" font-size="12" font-weight="700" fill="#202725">R1</text>
  <text x="32" y="572" font-size="12" fill="#6f7875">7.6s</text>
  <text x="32" y="594" font-size="12" fill="#6f7875">1041 tokens</text>
<text x="202" y="550" font-size="12" font-weight="700" fill="#202725">R2</text>
  <text x="202" y="572" font-size="12" fill="#6f7875">8.4s</text>
  <text x="202" y="594" font-size="12" fill="#6f7875">893 tokens</text>
<text x="372" y="550" font-size="12" font-weight="700" fill="#202725">R3</text>
  <text x="372" y="572" font-size="12" fill="#6f7875">7.3s</text>
  <text x="372" y="594" font-size="12" fill="#6f7875">1065 tokens</text>
<text x="542" y="550" font-size="12" font-weight="700" fill="#202725">R4</text>
  <text x="542" y="572" font-size="12" fill="#6f7875">8.6s</text>
  <text x="542" y="594" font-size="12" fill="#6f7875">1033 tokens</text>
<text x="712" y="550" font-size="12" font-weight="700" fill="#202725">R5</text>
  <text x="712" y="572" font-size="12" fill="#6f7875">9.6s</text>
  <text x="712" y="594" font-size="12" fill="#6f7875">1027 tokens</text>
</svg>
