<svg xmlns="http://www.w3.org/2000/svg" width="920" height="620" viewBox="0 0 920 620" role="img" aria-labelledby="title desc">
  <title id="title">AI Performance Report</title>
  <desc id="desc">Aggregated AI latency, token usage, fallback rate, and failure rate from docs/ai-performance-history.json.</desc>
  <rect width="920" height="620" fill="#ffffff" />
  <text x="32" y="42" font-size="24" font-weight="800" fill="#202725">AI Performance Report</text>
  <text x="32" y="68" font-size="13" fill="#6f7875">Latency, tokens, fallback rate, and failure rate from docs/ai-performance-history.json</text>
  <text x="32" y="112" font-size="15" font-weight="700" fill="#202725">Summary</text>
  <text x="32" y="136" font-size="12" fill="#6f7875">5 runs · avg latency 10.8s · p95 14.2s · avg tokens 852</text>

  <text x="32" y="184" font-size="15" font-weight="700" fill="#202725">Latency Trend</text>
  <line x1="92" y1="284" x2="732" y2="284" stroke="#ecf0ee" />
  <path d="M 92.0 202.3 L 252.0 247.3 L 412.0 219.4 L 572.0 194.0 L 732.0 218.6" fill="none" stroke="#57bf8e" stroke-width="3" stroke-linecap="round" stroke-linejoin="round" />
  <circle cx="92.0" cy="202.3" r="4" fill="#57bf8e" />
<circle cx="252.0" cy="247.3" r="4" fill="#57bf8e" />
<circle cx="412.0" cy="219.4" r="4" fill="#57bf8e" />
<circle cx="572.0" cy="194.0" r="4" fill="#57bf8e" />
<circle cx="732.0" cy="218.6" r="5" fill="#202725" />
  <text x="92.0" y="308" text-anchor="start" font-size="11" fill="#6f7875">R1</text>
<text x="252.0" y="308" text-anchor="middle" font-size="11" fill="#6f7875">R2</text>
<text x="412.0" y="308" text-anchor="middle" font-size="11" fill="#6f7875">R3</text>
<text x="572.0" y="308" text-anchor="middle" font-size="11" fill="#6f7875">R4</text>
<text x="732.0" y="308" text-anchor="end" font-size="11" fill="#6f7875">R5</text>
  <text x="760" y="224" font-size="12" fill="#6f7875">lower is better</text>
  <text x="760" y="246" font-size="12" fill="#202725">slowest 14.2s</text>

  <text x="32" y="354" font-size="15" font-weight="700" fill="#202725">Token Trend</text>
  <line x1="92" y1="454" x2="732" y2="454" stroke="#ecf0ee" />
  <path d="M 92.0 370.7 L 252.0 371.5 L 412.0 364.0 L 572.0 376.4 L 732.0 365.6" fill="none" stroke="#75b7d9" stroke-width="3" stroke-linecap="round" stroke-linejoin="round" />
  <circle cx="92.0" cy="370.7" r="4" fill="#75b7d9" />
<circle cx="252.0" cy="371.5" r="4" fill="#75b7d9" />
<circle cx="412.0" cy="364.0" r="4" fill="#75b7d9" />
<circle cx="572.0" cy="376.4" r="4" fill="#75b7d9" />
<circle cx="732.0" cy="365.6" r="5" fill="#202725" />
  <text x="92.0" y="478" text-anchor="start" font-size="11" fill="#6f7875">R1</text>
<text x="252.0" y="478" text-anchor="middle" font-size="11" fill="#6f7875">R2</text>
<text x="412.0" y="478" text-anchor="middle" font-size="11" fill="#6f7875">R3</text>
<text x="572.0" y="478" text-anchor="middle" font-size="11" fill="#6f7875">R4</text>
<text x="732.0" y="478" text-anchor="end" font-size="11" fill="#6f7875">R5</text>
  <text x="760" y="394" font-size="12" fill="#6f7875">lower is cheaper</text>
  <text x="760" y="416" font-size="12" fill="#202725">max 908 tokens</text>

  <text x="32" y="522" font-size="15" font-weight="700" fill="#202725">Latest Runs</text>
  <text x="32" y="550" font-size="12" font-weight="700" fill="#202725">R1</text>
  <text x="32" y="572" font-size="12" fill="#6f7875">12.9s</text>
  <text x="32" y="594" font-size="12" fill="#6f7875">842 tokens</text>
<text x="202" y="550" font-size="12" font-weight="700" fill="#202725">R2</text>
  <text x="202" y="572" font-size="12" fill="#6f7875">6.0s</text>
  <text x="202" y="594" font-size="12" fill="#6f7875">834 tokens</text>
<text x="372" y="550" font-size="12" font-weight="700" fill="#202725">R3</text>
  <text x="372" y="572" font-size="12" fill="#6f7875">10.3s</text>
  <text x="372" y="594" font-size="12" fill="#6f7875">908 tokens</text>
<text x="542" y="550" font-size="12" font-weight="700" fill="#202725">R4</text>
  <text x="542" y="572" font-size="12" fill="#6f7875">14.2s</text>
  <text x="542" y="594" font-size="12" fill="#6f7875">786 tokens</text>
<text x="712" y="550" font-size="12" font-weight="700" fill="#202725">R5</text>
  <text x="712" y="572" font-size="12" fill="#6f7875">10.4s</text>
  <text x="712" y="594" font-size="12" fill="#6f7875">892 tokens</text>
</svg>
