<svg xmlns="http://www.w3.org/2000/svg" width="920" height="650" viewBox="0 0 920 650" role="img" aria-labelledby="title desc">
  <title id="title">AI Recipe Quality Report</title>
  <desc id="desc">Recipe recommendation quality metrics from fixed evaluation cases and recorded AI responses.</desc>
  <rect width="920" height="650" fill="#ffffff" />
  <text x="32" y="42" font-size="24" font-weight="800" fill="#202725">AI Recipe Quality Report</text>
  <text x="32" y="68" font-size="13" fill="#6f7875">Valid recommendations, ingredient utilization, source validity, and awkward pair checks</text>
  <text x="32" y="112" font-size="13" font-weight="700" fill="#202725">Quality score</text>
  <rect x="220" y="99" width="520" height="16" rx="4" fill="#ecf0ee" />
  <rect x="220" y="99" width="462.8" height="16" rx="4" fill="#57bf8e" />
  <text x="758" y="112" font-size="12" fill="#202725">89%</text>
<text x="32" y="148" font-size="13" font-weight="700" fill="#202725">Valid recommendations</text>
  <rect x="220" y="135" width="520" height="16" rx="4" fill="#ecf0ee" />
  <rect x="220" y="135" width="416.0" height="16" rx="4" fill="#8ccfb0" />
  <text x="758" y="148" font-size="12" fill="#202725">80%</text>
<text x="32" y="184" font-size="13" font-weight="700" fill="#202725">Ingredient utilization</text>
  <rect x="220" y="171" width="520" height="16" rx="4" fill="#ecf0ee" />
  <rect x="220" y="171" width="520.0" height="16" rx="4" fill="#75b7d9" />
  <text x="758" y="184" font-size="12" fill="#202725">100%</text>
<text x="32" y="220" font-size="13" font-weight="700" fill="#202725">Source validity</text>
  <rect x="220" y="207" width="520" height="16" rx="4" fill="#ecf0ee" />
  <rect x="220" y="207" width="520.0" height="16" rx="4" fill="#9c8ee5" />
  <text x="758" y="220" font-size="12" fill="#202725">100%</text>
<text x="32" y="256" font-size="13" font-weight="700" fill="#202725">Pass rate</text>
  <rect x="220" y="243" width="520" height="16" rx="4" fill="#ecf0ee" />
  <rect x="220" y="243" width="208.0" height="16" rx="4" fill="#f2b84b" />
  <text x="758" y="256" font-size="12" fill="#202725">40%</text>
  <text x="32" y="330" font-size="15" font-weight="700" fill="#202725">Quality Trend</text>
  <line x1="92" y1="430" x2="732" y2="430" stroke="#ecf0ee" />
  <path d="M 92.0 340.0 L 252.0 352.3 L 412.0 340.0 L 572.0 364.5 L 732.0 353.8" fill="none" stroke="#57bf8e" stroke-width="3" stroke-linecap="round" stroke-linejoin="round" />
  <circle cx="92.0" cy="340.0" r="4" fill="#57bf8e" />
<circle cx="252.0" cy="352.3" r="4" fill="#57bf8e" />
<circle cx="412.0" cy="340.0" r="4" fill="#57bf8e" />
<circle cx="572.0" cy="364.5" r="4" fill="#57bf8e" />
<circle cx="732.0" cy="353.8" r="5" fill="#202725" />
  <text x="92.0" y="454" text-anchor="start" font-size="11" fill="#6f7875">R1</text>
<text x="252.0" y="454" text-anchor="middle" font-size="11" fill="#6f7875">R2</text>
<text x="412.0" y="454" text-anchor="middle" font-size="11" fill="#6f7875">R3</text>
<text x="572.0" y="454" text-anchor="middle" font-size="11" fill="#6f7875">R4</text>
<text x="732.0" y="454" text-anchor="end" font-size="11" fill="#6f7875">R5</text>
  <text x="760" y="370" font-size="12" fill="#6f7875">higher is better</text>
  <text x="760" y="392" font-size="12" fill="#202725">pass rate 40%</text>

  <text x="32" y="504" font-size="15" font-weight="700" fill="#202725">Case Results</text>
  <text x="32" y="532" font-size="12" font-weight="700" fill="#202725">R1</text>
  <text x="32" y="554" font-size="12" fill="#6f7875">quality 100%</text>
  <text x="32" y="576" font-size="12" fill="#13966f">pass · awkward 0</text>
<text x="202" y="532" font-size="12" font-weight="700" fill="#202725">R2</text>
  <text x="202" y="554" font-size="12" fill="#6f7875">quality 87%</text>
  <text x="202" y="576" font-size="12" fill="#b35b00">fail · awkward 0</text>
<text x="372" y="532" font-size="12" font-weight="700" fill="#202725">R3</text>
  <text x="372" y="554" font-size="12" fill="#6f7875">quality 100%</text>
  <text x="372" y="576" font-size="12" fill="#13966f">pass · awkward 0</text>
<text x="542" y="532" font-size="12" font-weight="700" fill="#202725">R4</text>
  <text x="542" y="554" font-size="12" fill="#6f7875">quality 73%</text>
  <text x="542" y="576" font-size="12" fill="#b35b00">fail · awkward 0</text>
<text x="712" y="532" font-size="12" font-weight="700" fill="#202725">R5</text>
  <text x="712" y="554" font-size="12" fill="#6f7875">quality 85%</text>
  <text x="712" y="576" font-size="12" fill="#b35b00">fail · awkward 3</text>
  <text x="32" y="616" font-size="12" fill="#6f7875">5 recorded runs · source docs/ai-recipe-quality-history.json</text>
</svg>
